<?xml version="1.0" encoding="UTF-8" standalone="no"?>
<svg
   enable-background="new 0 0 512 512"
   id="Layer_1"
   version="1.1"
   viewBox="0 0 512 512"
   xml:space="preserve"
   sodipodi:docname="logo.svg"
   inkscape:version="1.4 (86a8ad7, 2024-10-11)"
   xmlns:inkscape="http://www.inkscape.org/namespaces/inkscape"
   xmlns:sodipodi="http://sodipodi.sourceforge.net/DTD/sodipodi-0.dtd"
   xmlns="http://www.w3.org/2000/svg"
   xmlns:svg="http://www.w3.org/2000/svg"><defs
     id="defs4" /><sodipodi:namedview
     id="namedview4"
     pagecolor="#ffffff"
     bordercolor="#000000"
     borderopacity="0.25"
     inkscape:showpageshadow="2"
     inkscape:pageopacity="0.0"
     inkscape:pagecheckerboard="0"
     inkscape:deskcolor="#d1d1d1"
     inkscape:zoom="2.2128906"
     inkscape:cx="201.54634"
     inkscape:cy="251.02913"
     inkscape:window-width="2560"
     inkscape:window-height="1351"
     inkscape:window-x="-9"
     inkscape:window-y="122"
     inkscape:window-maximized="1"
     inkscape:current-layer="Layer_1" /><linearGradient
     gradientUnits="userSpaceOnUse"
     id="SVGID_1_"
     x1="233.68813"
     x2="278.31186"
     y1="511.02585"
     y2="0.97415805"><stop
       offset="0.06925209"
       style="stop-color:#000000;stop-opacity:1;"
       id="stop1" /><stop
       offset="1"
       style="stop-color:#5c21a9;stop-opacity:1;"
       id="stop2" /></linearGradient><circle
     cx="256"
     cy="256"
     fill="url(#SVGID_1_)"
     r="256"
     id="circle2" /><g
     id="g4"><path
       d="M175.4,282.1V142.7c0-2.8-2.3-5.1-5.1-5.1s-5.1,2.3-5.1,5.1v139.4c-19.1,2.5-34,18.8-34,38.5   c0,19.8,14.9,36,34,38.5v10.2c0,2.8,2.3,5.1,5.1,5.1s5.1-2.3,5.1-5.1v-10.2c19.1-2.5,34-18.8,34-38.5   C209.4,300.8,194.5,284.6,175.4,282.1z M170.3,349.5C170.3,349.5,170.3,349.5,170.3,349.5C170.3,349.5,170.3,349.5,170.3,349.5   c-15.9,0-28.9-13-28.9-28.9c0-15.9,13-28.9,28.9-28.9s28.9,12.9,28.9,28.9C199.2,336.5,186.2,349.5,170.3,349.5z"
       fill="#FFFFFF"
       id="path2" /><path
       d="M380.7,282.5c0-19.8-14.9-36-34-38.5V142.7c0-2.8-2.3-5.1-5.1-5.1c-2.8,0-5.1,2.3-5.1,5.1V244   c-19.1,2.5-34,18.7-34,38.5c0,19.8,14.9,36,34,38.5v48.3c0,2.8,2.3,5.1,5.1,5.1c2.8,0,5.1-2.3,5.1-5.1v-48.3   C365.9,318.5,380.7,302.3,380.7,282.5z M341.7,311.4c-15.9,0-28.9-12.9-28.9-28.9c0-15.9,13-28.9,28.9-28.9   c15.9,0,28.9,13,28.9,28.9C370.5,298.4,357.6,311.4,341.7,311.4z"
       fill="#FFFFFF"
       id="path3" /><path
       d="M261.7,152.9v-10.2c0-2.8-2.3-5.1-5.1-5.1c-2.8,0-5.1,2.3-5.1,5.1v10.2c-19.1,2.5-34,18.8-34,38.5   s14.9,36,34,38.5v139.4c0,2.8,2.3,5.1,5.1,5.1c2.8,0,5.1-2.3,5.1-5.1V230c19.1-2.5,34-18.8,34-38.5S280.9,155.4,261.7,152.9z    M256.7,220.3C256.7,220.3,256.6,220.3,256.7,220.3C256.6,220.3,256.6,220.3,256.7,220.3c-15.9,0-28.9-13-28.9-28.9   c0-15.9,13-28.9,28.9-28.9c15.9,0,28.9,13,28.9,28.9C285.5,207.3,272.6,220.3,256.7,220.3z"
       fill="#FFFFFF"
       id="path4" /></g></svg>
